<mxfile host="app.diagrams.net" agent="Mozilla/5.0 (Windows NT 10.0; Win64; x64) AppleWebKit/537.36 (KHTML, like Gecko) Chrome/131.0.0.0 Safari/537.36" version="26.0.6" pages="3">
  <diagram name="요구사항정리" id="CD3CnhGs_FFuU7DFN_gl">
    <mxGraphModel dx="1338" dy="828" grid="1" gridSize="10" guides="1" tooltips="1" connect="1" arrows="1" fold="1" page="1" pageScale="1" pageWidth="827" pageHeight="1169" math="0" shadow="0">
      <root>
        <mxCell id="0" />
        <mxCell id="1" parent="0" />
        <mxCell id="qcynNWfc9t0uGiLTbZhT-1" value="회원" style="text;html=1;align=center;verticalAlign=middle;resizable=0;points=[];autosize=1;strokeColor=none;fillColor=none;" parent="1" vertex="1">
          <mxGeometry x="85" y="180" width="50" height="30" as="geometry" />
        </mxCell>
        <mxCell id="qcynNWfc9t0uGiLTbZhT-2" value="비회원" style="text;html=1;align=center;verticalAlign=middle;resizable=0;points=[];autosize=1;strokeColor=none;fillColor=none;" parent="1" vertex="1">
          <mxGeometry x="525" y="180" width="60" height="30" as="geometry" />
        </mxCell>
        <mxCell id="qcynNWfc9t0uGiLTbZhT-3" value="관리자" style="text;html=1;align=center;verticalAlign=middle;resizable=0;points=[];autosize=1;strokeColor=none;fillColor=none;" parent="1" vertex="1">
          <mxGeometry x="85" y="515" width="60" height="30" as="geometry" />
        </mxCell>
        <mxCell id="qcynNWfc9t0uGiLTbZhT-6" value="판매자" style="text;html=1;align=center;verticalAlign=middle;resizable=0;points=[];autosize=1;strokeColor=none;fillColor=none;" parent="1" vertex="1">
          <mxGeometry x="555" y="470" width="60" height="30" as="geometry" />
        </mxCell>
        <mxCell id="qcynNWfc9t0uGiLTbZhT-7" value="게임구매" style="text;html=1;align=center;verticalAlign=middle;whiteSpace=wrap;rounded=0;" parent="1" vertex="1">
          <mxGeometry x="82.5" y="240" width="60" height="32" as="geometry" />
        </mxCell>
        <mxCell id="qcynNWfc9t0uGiLTbZhT-9" value="장바구니에 추가" style="text;html=1;align=center;verticalAlign=middle;resizable=0;points=[];autosize=1;strokeColor=none;fillColor=none;" parent="1" vertex="1">
          <mxGeometry x="77.5" y="282" width="110" height="30" as="geometry" />
        </mxCell>
        <mxCell id="qcynNWfc9t0uGiLTbZhT-10" value="장바구니 목록 삭제" style="text;html=1;align=center;verticalAlign=middle;resizable=0;points=[];autosize=1;strokeColor=none;fillColor=none;" parent="1" vertex="1">
          <mxGeometry x="75" y="312" width="130" height="30" as="geometry" />
        </mxCell>
        <mxCell id="qcynNWfc9t0uGiLTbZhT-11" value="장바구니 수정" style="text;html=1;align=center;verticalAlign=middle;resizable=0;points=[];autosize=1;strokeColor=none;fillColor=none;" parent="1" vertex="1">
          <mxGeometry x="90" y="345" width="100" height="30" as="geometry" />
        </mxCell>
        <mxCell id="qcynNWfc9t0uGiLTbZhT-12" value="마이페이지 조회" style="text;html=1;align=center;verticalAlign=middle;resizable=0;points=[];autosize=1;strokeColor=none;fillColor=none;" parent="1" vertex="1">
          <mxGeometry x="335" y="233" width="110" height="30" as="geometry" />
        </mxCell>
        <mxCell id="qcynNWfc9t0uGiLTbZhT-13" value="게시판 조회" style="text;html=1;align=center;verticalAlign=middle;resizable=0;points=[];autosize=1;strokeColor=none;fillColor=none;" parent="1" vertex="1">
          <mxGeometry x="195" y="345" width="90" height="30" as="geometry" />
        </mxCell>
        <mxCell id="qcynNWfc9t0uGiLTbZhT-15" value="게시판 글쓰기" style="text;html=1;align=center;verticalAlign=middle;resizable=0;points=[];autosize=1;strokeColor=none;fillColor=none;" parent="1" vertex="1">
          <mxGeometry x="325" y="263" width="100" height="30" as="geometry" />
        </mxCell>
        <mxCell id="qcynNWfc9t0uGiLTbZhT-16" value="이벤트 등록" style="text;html=1;align=center;verticalAlign=middle;resizable=0;points=[];autosize=1;strokeColor=none;fillColor=none;" parent="1" vertex="1">
          <mxGeometry x="80" y="550" width="90" height="30" as="geometry" />
        </mxCell>
        <mxCell id="qcynNWfc9t0uGiLTbZhT-17" value="물품 등록" style="text;html=1;align=center;verticalAlign=middle;resizable=0;points=[];autosize=1;strokeColor=none;fillColor=none;" parent="1" vertex="1">
          <mxGeometry x="555" y="510" width="70" height="30" as="geometry" />
        </mxCell>
        <mxCell id="qcynNWfc9t0uGiLTbZhT-18" value="물품 내용 수정" style="text;html=1;align=center;verticalAlign=middle;resizable=0;points=[];autosize=1;strokeColor=none;fillColor=none;" parent="1" vertex="1">
          <mxGeometry x="555" y="545" width="100" height="30" as="geometry" />
        </mxCell>
        <mxCell id="qcynNWfc9t0uGiLTbZhT-19" value="물품 삭제" style="text;html=1;align=center;verticalAlign=middle;resizable=0;points=[];autosize=1;strokeColor=none;fillColor=none;" parent="1" vertex="1">
          <mxGeometry x="555" y="580" width="70" height="30" as="geometry" />
        </mxCell>
        <mxCell id="qcynNWfc9t0uGiLTbZhT-20" value="회원가입" style="text;html=1;align=center;verticalAlign=middle;resizable=0;points=[];autosize=1;strokeColor=none;fillColor=none;" parent="1" vertex="1">
          <mxGeometry x="530" y="234.25" width="70" height="30" as="geometry" />
        </mxCell>
        <mxCell id="qcynNWfc9t0uGiLTbZhT-22" value="키워드별 조회" style="text;html=1;align=center;verticalAlign=middle;resizable=0;points=[];autosize=1;strokeColor=none;fillColor=none;" parent="1" vertex="1">
          <mxGeometry x="195" y="255" width="100" height="30" as="geometry" />
        </mxCell>
        <mxCell id="qcynNWfc9t0uGiLTbZhT-27" value="게임 상세 내용 조회" style="text;html=1;align=center;verticalAlign=middle;resizable=0;points=[];autosize=1;strokeColor=none;fillColor=none;" parent="1" vertex="1">
          <mxGeometry x="195" y="285" width="130" height="30" as="geometry" />
        </mxCell>
        <mxCell id="qcynNWfc9t0uGiLTbZhT-29" value="북마크 추가" style="text;html=1;align=center;verticalAlign=middle;resizable=0;points=[];autosize=1;strokeColor=none;fillColor=none;" parent="1" vertex="1">
          <mxGeometry x="90" y="383" width="90" height="30" as="geometry" />
        </mxCell>
        <mxCell id="qcynNWfc9t0uGiLTbZhT-30" value="게임별 후기 조회" style="text;html=1;align=center;verticalAlign=middle;resizable=0;points=[];autosize=1;strokeColor=none;fillColor=none;" parent="1" vertex="1">
          <mxGeometry x="200" y="315" width="110" height="30" as="geometry" />
        </mxCell>
        <mxCell id="qcynNWfc9t0uGiLTbZhT-38" value="개인정보 등록및 수정" style="text;strokeColor=none;align=center;fillColor=none;html=1;verticalAlign=middle;whiteSpace=wrap;rounded=0;" parent="1" vertex="1">
          <mxGeometry x="325" y="307" width="130" as="geometry" />
        </mxCell>
        <mxCell id="qcynNWfc9t0uGiLTbZhT-39" value="구매 목록 조회" style="text;strokeColor=none;align=center;fillColor=none;html=1;verticalAlign=middle;whiteSpace=wrap;rounded=0;" parent="1" vertex="1">
          <mxGeometry x="325" y="325" width="110" height="20" as="geometry" />
        </mxCell>
        <mxCell id="qcynNWfc9t0uGiLTbZhT-41" value="물품 조회" style="text;strokeColor=none;align=center;fillColor=none;html=1;verticalAlign=middle;whiteSpace=wrap;rounded=0;" parent="1" vertex="1">
          <mxGeometry x="560" y="620" width="60" height="25" as="geometry" />
        </mxCell>
        <mxCell id="qcynNWfc9t0uGiLTbZhT-42" value="공지사항 등록" style="text;strokeColor=none;align=center;fillColor=none;html=1;verticalAlign=middle;whiteSpace=wrap;rounded=0;" parent="1" vertex="1">
          <mxGeometry x="75" y="590" width="110" height="20" as="geometry" />
        </mxCell>
        <mxCell id="qcynNWfc9t0uGiLTbZhT-43" value="문의 글 등록" style="text;strokeColor=none;align=center;fillColor=none;html=1;verticalAlign=middle;whiteSpace=wrap;rounded=0;" parent="1" vertex="1">
          <mxGeometry x="75" y="625" width="110" height="20" as="geometry" />
        </mxCell>
        <mxCell id="qcynNWfc9t0uGiLTbZhT-48" value="회원탈퇴" style="text;html=1;align=center;verticalAlign=middle;resizable=0;points=[];autosize=1;strokeColor=none;fillColor=none;" parent="1" vertex="1">
          <mxGeometry x="329" y="355" width="70" height="30" as="geometry" />
        </mxCell>
        <mxCell id="ykk2w-Wy7sAwuOutuwSW-1" value="로그인" style="text;html=1;align=center;verticalAlign=middle;resizable=0;points=[];autosize=1;strokeColor=none;fillColor=none;" parent="1" vertex="1">
          <mxGeometry x="100" y="413" width="60" height="30" as="geometry" />
        </mxCell>
        <mxCell id="ykk2w-Wy7sAwuOutuwSW-2" value="판매내역 조회" style="text;html=1;align=center;verticalAlign=middle;resizable=0;points=[];autosize=1;strokeColor=none;fillColor=none;" parent="1" vertex="1">
          <mxGeometry x="650" y="510" width="100" height="30" as="geometry" />
        </mxCell>
      </root>
    </mxGraphModel>
  </diagram>
  <diagram id="5SxK8UP2nKnds_fhQgnK" name="유스케이스 다이어그램">
    <mxGraphModel dx="1990" dy="1889" grid="1" gridSize="10" guides="1" tooltips="1" connect="1" arrows="1" fold="1" page="1" pageScale="1" pageWidth="827" pageHeight="1169" math="0" shadow="0">
      <root>
        <mxCell id="0" />
        <mxCell id="1" parent="0" />
        <mxCell id="wotGjE5In-CZQoYwchhj-1" value="게임 구매 서비스" style="shape=umlFrame;whiteSpace=wrap;html=1;pointerEvents=0;width=120;height=40;" parent="1" vertex="1">
          <mxGeometry x="-150" y="-90" width="1010" height="1050" as="geometry" />
        </mxCell>
        <mxCell id="wotGjE5In-CZQoYwchhj-2" value="비회원" style="shape=umlActor;verticalLabelPosition=bottom;verticalAlign=top;html=1;" parent="1" vertex="1">
          <mxGeometry x="-290" y="100" width="30" height="60" as="geometry" />
        </mxCell>
        <mxCell id="wotGjE5In-CZQoYwchhj-3" value="회원" style="shape=umlActor;verticalLabelPosition=bottom;verticalAlign=top;html=1;" parent="1" vertex="1">
          <mxGeometry x="-300" y="690" width="30" height="60" as="geometry" />
        </mxCell>
        <mxCell id="wotGjE5In-CZQoYwchhj-4" value="관리자" style="shape=umlActor;verticalLabelPosition=bottom;verticalAlign=top;html=1;" parent="1" vertex="1">
          <mxGeometry x="890" y="680" width="30" height="60" as="geometry" />
        </mxCell>
        <mxCell id="wotGjE5In-CZQoYwchhj-5" value="판매자" style="shape=umlActor;verticalLabelPosition=bottom;verticalAlign=top;html=1;" parent="1" vertex="1">
          <mxGeometry x="900" y="310" width="30" height="60" as="geometry" />
        </mxCell>
        <mxCell id="NsnlKhANqIH6aX_Me6l3-1" value="게임 검색" style="ellipse;whiteSpace=wrap;html=1;" parent="1" vertex="1">
          <mxGeometry x="42.5" y="355" width="80" height="40" as="geometry" />
        </mxCell>
        <mxCell id="OAprQZaed1EWCkTWH10G-1" value="use" style="html=1;verticalAlign=bottom;endArrow=open;curved=0;rounded=0;entryX=0;entryY=0.5;entryDx=0;entryDy=0;exitX=0.5;exitY=0.5;exitDx=0;exitDy=0;exitPerimeter=0;endFill=0;" parent="1" source="wotGjE5In-CZQoYwchhj-2" target="NsnlKhANqIH6aX_Me6l3-1" edge="1">
          <mxGeometry width="80" relative="1" as="geometry">
            <mxPoint y="240" as="sourcePoint" />
            <mxPoint x="80" y="240" as="targetPoint" />
          </mxGeometry>
        </mxCell>
        <mxCell id="OAprQZaed1EWCkTWH10G-2" value="use" style="html=1;verticalAlign=bottom;endArrow=open;curved=0;rounded=0;entryX=0;entryY=1;entryDx=0;entryDy=0;exitX=0.5;exitY=0.5;exitDx=0;exitDy=0;exitPerimeter=0;endFill=0;" parent="1" source="wotGjE5In-CZQoYwchhj-3" target="NsnlKhANqIH6aX_Me6l3-1" edge="1">
          <mxGeometry width="80" relative="1" as="geometry">
            <mxPoint x="-14" y="628" as="sourcePoint" />
            <mxPoint x="210" y="530" as="targetPoint" />
          </mxGeometry>
        </mxCell>
        <mxCell id="OAprQZaed1EWCkTWH10G-3" value="게임 구매" style="ellipse;whiteSpace=wrap;html=1;" parent="1" vertex="1">
          <mxGeometry x="215" y="380" width="80" height="40" as="geometry" />
        </mxCell>
        <mxCell id="OAprQZaed1EWCkTWH10G-5" value="게시판" style="ellipse;whiteSpace=wrap;html=1;" parent="1" vertex="1">
          <mxGeometry x="200" y="600" width="80" height="40" as="geometry" />
        </mxCell>
        <mxCell id="OAprQZaed1EWCkTWH10G-8" value="마이페이지" style="ellipse;whiteSpace=wrap;html=1;" parent="1" vertex="1">
          <mxGeometry x="222.5" y="810" width="80" height="40" as="geometry" />
        </mxCell>
        <mxCell id="OAprQZaed1EWCkTWH10G-9" value="use" style="html=1;verticalAlign=bottom;endArrow=open;curved=0;rounded=0;entryX=0;entryY=0.5;entryDx=0;entryDy=0;exitX=0.5;exitY=0.5;exitDx=0;exitDy=0;exitPerimeter=0;endFill=0;" parent="1" source="wotGjE5In-CZQoYwchhj-3" target="OAprQZaed1EWCkTWH10G-3" edge="1">
          <mxGeometry width="80" relative="1" as="geometry">
            <mxPoint x="-10" y="510" as="sourcePoint" />
            <mxPoint x="222" y="284" as="targetPoint" />
          </mxGeometry>
        </mxCell>
        <mxCell id="OAprQZaed1EWCkTWH10G-10" value="use" style="html=1;verticalAlign=bottom;endArrow=open;curved=0;rounded=0;entryX=0;entryY=0.5;entryDx=0;entryDy=0;exitX=0.5;exitY=0.5;exitDx=0;exitDy=0;exitPerimeter=0;endFill=0;" parent="1" source="wotGjE5In-CZQoYwchhj-3" target="OAprQZaed1EWCkTWH10G-5" edge="1">
          <mxGeometry width="80" relative="1" as="geometry">
            <mxPoint x="6" y="528" as="sourcePoint" />
            <mxPoint x="232" y="294" as="targetPoint" />
          </mxGeometry>
        </mxCell>
        <mxCell id="OAprQZaed1EWCkTWH10G-11" value="use" style="html=1;verticalAlign=bottom;endArrow=open;curved=0;rounded=0;entryX=0;entryY=0.5;entryDx=0;entryDy=0;endFill=0;exitX=0.5;exitY=0.5;exitDx=0;exitDy=0;exitPerimeter=0;" parent="1" source="wotGjE5In-CZQoYwchhj-3" target="OAprQZaed1EWCkTWH10G-8" edge="1">
          <mxGeometry width="80" relative="1" as="geometry">
            <mxPoint x="-15" y="620" as="sourcePoint" />
            <mxPoint x="242" y="304" as="targetPoint" />
          </mxGeometry>
        </mxCell>
        <mxCell id="OAprQZaed1EWCkTWH10G-12" value="전체" style="ellipse;whiteSpace=wrap;html=1;" parent="1" vertex="1">
          <mxGeometry x="12.5" y="285" width="40" height="40" as="geometry" />
        </mxCell>
        <mxCell id="OAprQZaed1EWCkTWH10G-13" value="카테&lt;div&gt;고리&lt;/div&gt;" style="ellipse;whiteSpace=wrap;html=1;" parent="1" vertex="1">
          <mxGeometry x="122.5" y="285" width="40" height="40" as="geometry" />
        </mxCell>
        <mxCell id="OAprQZaed1EWCkTWH10G-14" value="&amp;lt;&amp;lt;Extends&amp;gt;&amp;gt;" style="endArrow=open;endSize=12;dashed=1;html=1;rounded=0;exitX=0.5;exitY=1;exitDx=0;exitDy=0;" parent="1" source="OAprQZaed1EWCkTWH10G-12" target="NsnlKhANqIH6aX_Me6l3-1" edge="1">
          <mxGeometry width="160" relative="1" as="geometry">
            <mxPoint x="17.5" y="405" as="sourcePoint" />
            <mxPoint x="177.5" y="405" as="targetPoint" />
          </mxGeometry>
        </mxCell>
        <mxCell id="OAprQZaed1EWCkTWH10G-15" value="&amp;lt;&amp;lt;Extends&amp;gt;&amp;gt;" style="endArrow=open;endSize=12;dashed=1;html=1;rounded=0;exitX=0.5;exitY=1;exitDx=0;exitDy=0;entryX=0.625;entryY=0.05;entryDx=0;entryDy=0;entryPerimeter=0;" parent="1" source="OAprQZaed1EWCkTWH10G-13" target="NsnlKhANqIH6aX_Me6l3-1" edge="1">
          <mxGeometry width="160" relative="1" as="geometry">
            <mxPoint x="39.5" y="265" as="sourcePoint" />
            <mxPoint x="77.5" y="336" as="targetPoint" />
          </mxGeometry>
        </mxCell>
        <mxCell id="OAprQZaed1EWCkTWH10G-19" value="회원가입" style="ellipse;whiteSpace=wrap;html=1;" parent="1" vertex="1">
          <mxGeometry y="-20" width="70" height="50" as="geometry" />
        </mxCell>
        <mxCell id="OAprQZaed1EWCkTWH10G-20" value="use" style="html=1;verticalAlign=bottom;endArrow=open;curved=0;rounded=0;entryX=0;entryY=0.5;entryDx=0;entryDy=0;exitX=0.5;exitY=0.5;exitDx=0;exitDy=0;exitPerimeter=0;endFill=0;" parent="1" source="wotGjE5In-CZQoYwchhj-2" target="OAprQZaed1EWCkTWH10G-19" edge="1">
          <mxGeometry width="80" relative="1" as="geometry">
            <mxPoint x="-5" y="240" as="sourcePoint" />
            <mxPoint x="410" y="420" as="targetPoint" />
          </mxGeometry>
        </mxCell>
        <mxCell id="OAprQZaed1EWCkTWH10G-21" value="게임 판매&lt;div&gt;서비스&lt;/div&gt;" style="ellipse;whiteSpace=wrap;html=1;" parent="1" vertex="1">
          <mxGeometry x="620" y="350" width="70" height="50" as="geometry" />
        </mxCell>
        <mxCell id="OAprQZaed1EWCkTWH10G-26" value="" style="rounded=0;orthogonalLoop=1;jettySize=auto;html=1;endArrow=block;endFill=0;" parent="1" source="OAprQZaed1EWCkTWH10G-22" target="OAprQZaed1EWCkTWH10G-21" edge="1">
          <mxGeometry relative="1" as="geometry" />
        </mxCell>
        <mxCell id="OAprQZaed1EWCkTWH10G-22" value="게임&lt;div&gt;등록&lt;/div&gt;" style="ellipse;whiteSpace=wrap;html=1;" parent="1" vertex="1">
          <mxGeometry x="620" y="430" width="40" height="40" as="geometry" />
        </mxCell>
        <mxCell id="OAprQZaed1EWCkTWH10G-28" value="" style="rounded=0;orthogonalLoop=1;jettySize=auto;html=1;endArrow=block;endFill=0;" parent="1" source="OAprQZaed1EWCkTWH10G-23" target="OAprQZaed1EWCkTWH10G-21" edge="1">
          <mxGeometry relative="1" as="geometry" />
        </mxCell>
        <mxCell id="OAprQZaed1EWCkTWH10G-23" value="내용&lt;div&gt;수정&lt;/div&gt;" style="ellipse;whiteSpace=wrap;html=1;" parent="1" vertex="1">
          <mxGeometry x="660" y="430" width="40" height="40" as="geometry" />
        </mxCell>
        <mxCell id="OAprQZaed1EWCkTWH10G-29" value="" style="rounded=0;orthogonalLoop=1;jettySize=auto;html=1;endArrow=block;endFill=0;" parent="1" source="OAprQZaed1EWCkTWH10G-24" target="OAprQZaed1EWCkTWH10G-21" edge="1">
          <mxGeometry relative="1" as="geometry" />
        </mxCell>
        <mxCell id="OAprQZaed1EWCkTWH10G-24" value="등록&lt;div&gt;삭제&lt;/div&gt;" style="ellipse;whiteSpace=wrap;html=1;" parent="1" vertex="1">
          <mxGeometry x="700" y="430" width="40" height="40" as="geometry" />
        </mxCell>
        <mxCell id="OAprQZaed1EWCkTWH10G-30" value="" style="rounded=0;orthogonalLoop=1;jettySize=auto;html=1;endArrow=block;endFill=0;" parent="1" target="OAprQZaed1EWCkTWH10G-21" edge="1">
          <mxGeometry relative="1" as="geometry">
            <mxPoint x="747.1247674178003" y="434.6954782513477" as="sourcePoint" />
          </mxGeometry>
        </mxCell>
        <mxCell id="OAprQZaed1EWCkTWH10G-25" value="등록&lt;div&gt;조회&lt;/div&gt;" style="ellipse;whiteSpace=wrap;html=1;" parent="1" vertex="1">
          <mxGeometry x="740" y="430" width="40" height="40" as="geometry" />
        </mxCell>
        <mxCell id="OAprQZaed1EWCkTWH10G-31" value="use" style="html=1;verticalAlign=bottom;endArrow=open;curved=0;rounded=0;entryX=1;entryY=0.5;entryDx=0;entryDy=0;exitX=0.5;exitY=0.5;exitDx=0;exitDy=0;exitPerimeter=0;endFill=0;" parent="1" source="wotGjE5In-CZQoYwchhj-5" target="OAprQZaed1EWCkTWH10G-21" edge="1">
          <mxGeometry width="80" relative="1" as="geometry">
            <mxPoint x="355" y="350" as="sourcePoint" />
            <mxPoint x="760" y="355" as="targetPoint" />
          </mxGeometry>
        </mxCell>
        <mxCell id="OAprQZaed1EWCkTWH10G-32" value="로그인" style="ellipse;whiteSpace=wrap;html=1;" parent="1" vertex="1">
          <mxGeometry x="414" y="470" width="70" height="50" as="geometry" />
        </mxCell>
        <mxCell id="OAprQZaed1EWCkTWH10G-33" value="&amp;lt;&amp;lt;Include&amp;gt;&amp;gt;" style="endArrow=open;endSize=12;dashed=1;html=1;rounded=0;exitX=1;exitY=0.5;exitDx=0;exitDy=0;" parent="1" source="OAprQZaed1EWCkTWH10G-3" edge="1">
          <mxGeometry width="160" relative="1" as="geometry">
            <mxPoint x="391" y="490" as="sourcePoint" />
            <mxPoint x="430" y="470" as="targetPoint" />
            <Array as="points" />
          </mxGeometry>
        </mxCell>
        <mxCell id="OAprQZaed1EWCkTWH10G-34" value="&amp;lt;&amp;lt;Include&amp;gt;&amp;gt;" style="endArrow=open;endSize=12;dashed=1;html=1;rounded=0;exitX=1;exitY=0.5;exitDx=0;exitDy=0;entryX=0.042;entryY=0.352;entryDx=0;entryDy=0;entryPerimeter=0;" parent="1" source="OAprQZaed1EWCkTWH10G-5" target="OAprQZaed1EWCkTWH10G-32" edge="1">
          <mxGeometry width="160" relative="1" as="geometry">
            <mxPoint x="230" y="520" as="sourcePoint" />
            <mxPoint x="400" y="595" as="targetPoint" />
          </mxGeometry>
        </mxCell>
        <mxCell id="OAprQZaed1EWCkTWH10G-36" value="&amp;lt;&amp;lt;Include&amp;gt;&amp;gt;" style="endArrow=open;endSize=12;dashed=1;html=1;rounded=0;exitX=0;exitY=0.6;exitDx=0;exitDy=0;exitPerimeter=0;" parent="1" source="OAprQZaed1EWCkTWH10G-21" target="OAprQZaed1EWCkTWH10G-32" edge="1">
          <mxGeometry width="160" relative="1" as="geometry">
            <mxPoint x="520" y="502.5" as="sourcePoint" />
            <mxPoint x="690" y="577.5" as="targetPoint" />
          </mxGeometry>
        </mxCell>
        <mxCell id="OAprQZaed1EWCkTWH10G-37" value="&amp;lt;&amp;lt;Include&amp;gt;&amp;gt;" style="endArrow=open;endSize=12;dashed=1;html=1;rounded=0;exitX=1;exitY=0.5;exitDx=0;exitDy=0;entryX=0.5;entryY=1;entryDx=0;entryDy=0;" parent="1" source="OAprQZaed1EWCkTWH10G-8" target="OAprQZaed1EWCkTWH10G-32" edge="1">
          <mxGeometry width="160" relative="1" as="geometry">
            <mxPoint x="440" y="547" as="sourcePoint" />
            <mxPoint x="610" y="622" as="targetPoint" />
          </mxGeometry>
        </mxCell>
        <mxCell id="OAprQZaed1EWCkTWH10G-39" value="장바&lt;div&gt;구니&lt;/div&gt;" style="ellipse;whiteSpace=wrap;html=1;" parent="1" vertex="1">
          <mxGeometry x="190" y="450" width="40" height="40" as="geometry" />
        </mxCell>
        <mxCell id="OAprQZaed1EWCkTWH10G-50" value="" style="rounded=0;orthogonalLoop=1;jettySize=auto;html=1;endArrow=block;endFill=0;" parent="1" source="OAprQZaed1EWCkTWH10G-43" target="OAprQZaed1EWCkTWH10G-39" edge="1">
          <mxGeometry relative="1" as="geometry" />
        </mxCell>
        <mxCell id="OAprQZaed1EWCkTWH10G-43" value="추가" style="ellipse;whiteSpace=wrap;html=1;" parent="1" vertex="1">
          <mxGeometry x="145" y="510" width="30" height="30" as="geometry" />
        </mxCell>
        <mxCell id="OAprQZaed1EWCkTWH10G-49" value="" style="rounded=0;orthogonalLoop=1;jettySize=auto;html=1;endArrow=block;endFill=0;entryX=0.5;entryY=1;entryDx=0;entryDy=0;" parent="1" target="OAprQZaed1EWCkTWH10G-39" edge="1">
          <mxGeometry relative="1" as="geometry">
            <mxPoint x="207.5" y="510" as="sourcePoint" />
            <mxPoint x="212.5" y="490" as="targetPoint" />
          </mxGeometry>
        </mxCell>
        <mxCell id="OAprQZaed1EWCkTWH10G-44" value="수정" style="ellipse;whiteSpace=wrap;html=1;" parent="1" vertex="1">
          <mxGeometry x="190" y="510" width="30" height="30" as="geometry" />
        </mxCell>
        <mxCell id="OAprQZaed1EWCkTWH10G-48" value="" style="rounded=0;orthogonalLoop=1;jettySize=auto;html=1;endArrow=block;endFill=0;" parent="1" source="OAprQZaed1EWCkTWH10G-45" target="OAprQZaed1EWCkTWH10G-39" edge="1">
          <mxGeometry relative="1" as="geometry" />
        </mxCell>
        <mxCell id="OAprQZaed1EWCkTWH10G-45" value="삭제" style="ellipse;whiteSpace=wrap;html=1;" parent="1" vertex="1">
          <mxGeometry x="235" y="510" width="30" height="30" as="geometry" />
        </mxCell>
        <mxCell id="OAprQZaed1EWCkTWH10G-53" value="추가" style="ellipse;whiteSpace=wrap;html=1;" parent="1" vertex="1">
          <mxGeometry x="180" y="665" width="30" height="30" as="geometry" />
        </mxCell>
        <mxCell id="OAprQZaed1EWCkTWH10G-54" value="" style="rounded=0;orthogonalLoop=1;jettySize=auto;html=1;endArrow=block;endFill=0;" parent="1" source="OAprQZaed1EWCkTWH10G-53" edge="1">
          <mxGeometry relative="1" as="geometry">
            <mxPoint x="227" y="640" as="targetPoint" />
          </mxGeometry>
        </mxCell>
        <mxCell id="OAprQZaed1EWCkTWH10G-55" value="수정" style="ellipse;whiteSpace=wrap;html=1;" parent="1" vertex="1">
          <mxGeometry x="225" y="665" width="30" height="30" as="geometry" />
        </mxCell>
        <mxCell id="OAprQZaed1EWCkTWH10G-56" value="" style="edgeStyle=orthogonalEdgeStyle;rounded=0;orthogonalLoop=1;jettySize=auto;html=1;endArrow=block;endFill=0;entryX=0.5;entryY=1;entryDx=0;entryDy=0;" parent="1" source="OAprQZaed1EWCkTWH10G-55" target="OAprQZaed1EWCkTWH10G-5" edge="1">
          <mxGeometry relative="1" as="geometry">
            <mxPoint x="240" y="645" as="targetPoint" />
            <Array as="points" />
          </mxGeometry>
        </mxCell>
        <mxCell id="OAprQZaed1EWCkTWH10G-57" value="" style="rounded=0;orthogonalLoop=1;jettySize=auto;html=1;endArrow=block;endFill=0;" parent="1" source="OAprQZaed1EWCkTWH10G-58" edge="1">
          <mxGeometry relative="1" as="geometry">
            <mxPoint x="253" y="640" as="targetPoint" />
          </mxGeometry>
        </mxCell>
        <mxCell id="OAprQZaed1EWCkTWH10G-58" value="삭제" style="ellipse;whiteSpace=wrap;html=1;" parent="1" vertex="1">
          <mxGeometry x="270" y="665" width="30" height="30" as="geometry" />
        </mxCell>
        <mxCell id="OAprQZaed1EWCkTWH10G-60" value="북마크" style="ellipse;whiteSpace=wrap;html=1;" parent="1" vertex="1">
          <mxGeometry x="242.5" y="905" width="40" height="40" as="geometry" />
        </mxCell>
        <mxCell id="OAprQZaed1EWCkTWH10G-64" value="수정" style="ellipse;whiteSpace=wrap;html=1;" parent="1" vertex="1">
          <mxGeometry x="162.5" y="910" width="30" height="30" as="geometry" />
        </mxCell>
        <mxCell id="OAprQZaed1EWCkTWH10G-65" value="회원&lt;div&gt;탈퇴&lt;/div&gt;" style="ellipse;whiteSpace=wrap;html=1;" parent="1" vertex="1">
          <mxGeometry x="325" y="905" width="55" height="30" as="geometry" />
        </mxCell>
        <mxCell id="OAprQZaed1EWCkTWH10G-67" value="" style="rounded=0;orthogonalLoop=1;jettySize=auto;html=1;endArrow=block;endFill=0;exitX=0.5;exitY=0;exitDx=0;exitDy=0;entryX=0.288;entryY=0.953;entryDx=0;entryDy=0;entryPerimeter=0;" parent="1" source="OAprQZaed1EWCkTWH10G-64" target="OAprQZaed1EWCkTWH10G-8" edge="1">
          <mxGeometry relative="1" as="geometry">
            <mxPoint x="371.5" y="850" as="sourcePoint" />
            <mxPoint x="402.5" y="819" as="targetPoint" />
          </mxGeometry>
        </mxCell>
        <mxCell id="OAprQZaed1EWCkTWH10G-68" value="" style="rounded=0;orthogonalLoop=1;jettySize=auto;html=1;endArrow=block;endFill=0;exitX=0.5;exitY=0;exitDx=0;exitDy=0;" parent="1" source="OAprQZaed1EWCkTWH10G-65" target="OAprQZaed1EWCkTWH10G-8" edge="1">
          <mxGeometry relative="1" as="geometry">
            <mxPoint x="242.5" y="880" as="sourcePoint" />
            <mxPoint x="272.5" y="860" as="targetPoint" />
          </mxGeometry>
        </mxCell>
        <mxCell id="OAprQZaed1EWCkTWH10G-70" value="관리자 게시판" style="ellipse;whiteSpace=wrap;html=1;" parent="1" vertex="1">
          <mxGeometry x="645" y="695" width="95" height="70" as="geometry" />
        </mxCell>
        <mxCell id="OAprQZaed1EWCkTWH10G-71" value="이벤트" style="ellipse;whiteSpace=wrap;html=1;" parent="1" vertex="1">
          <mxGeometry x="620" y="840" width="50" height="50" as="geometry" />
        </mxCell>
        <mxCell id="OAprQZaed1EWCkTWH10G-72" value="공지&lt;div&gt;사항&lt;/div&gt;" style="ellipse;whiteSpace=wrap;html=1;" parent="1" vertex="1">
          <mxGeometry x="670" y="840" width="50" height="50" as="geometry" />
        </mxCell>
        <mxCell id="OAprQZaed1EWCkTWH10G-73" value="문의" style="ellipse;whiteSpace=wrap;html=1;" parent="1" vertex="1">
          <mxGeometry x="720" y="840" width="50" height="50" as="geometry" />
        </mxCell>
        <mxCell id="OAprQZaed1EWCkTWH10G-76" value="" style="rounded=0;orthogonalLoop=1;jettySize=auto;html=1;endArrow=block;endFill=0;exitX=0.5;exitY=0;exitDx=0;exitDy=0;entryX=0.322;entryY=0.984;entryDx=0;entryDy=0;entryPerimeter=0;" parent="1" source="OAprQZaed1EWCkTWH10G-71" target="OAprQZaed1EWCkTWH10G-70" edge="1">
          <mxGeometry relative="1" as="geometry">
            <mxPoint x="615" y="831" as="sourcePoint" />
            <mxPoint x="646" y="800" as="targetPoint" />
          </mxGeometry>
        </mxCell>
        <mxCell id="OAprQZaed1EWCkTWH10G-77" value="" style="rounded=0;orthogonalLoop=1;jettySize=auto;html=1;endArrow=block;endFill=0;exitX=0.36;exitY=0.1;exitDx=0;exitDy=0;entryX=0.5;entryY=1;entryDx=0;entryDy=0;exitPerimeter=0;" parent="1" source="OAprQZaed1EWCkTWH10G-72" target="OAprQZaed1EWCkTWH10G-70" edge="1">
          <mxGeometry relative="1" as="geometry">
            <mxPoint x="620" y="856" as="sourcePoint" />
            <mxPoint x="650" y="819" as="targetPoint" />
          </mxGeometry>
        </mxCell>
        <mxCell id="OAprQZaed1EWCkTWH10G-78" value="" style="rounded=0;orthogonalLoop=1;jettySize=auto;html=1;endArrow=block;endFill=0;exitX=0.26;exitY=0;exitDx=0;exitDy=0;entryX=0.764;entryY=0.9;entryDx=0;entryDy=0;entryPerimeter=0;exitPerimeter=0;" parent="1" source="OAprQZaed1EWCkTWH10G-73" target="OAprQZaed1EWCkTWH10G-70" edge="1">
          <mxGeometry relative="1" as="geometry">
            <mxPoint x="630" y="866" as="sourcePoint" />
            <mxPoint x="660" y="829" as="targetPoint" />
          </mxGeometry>
        </mxCell>
        <mxCell id="OAprQZaed1EWCkTWH10G-79" value="use" style="html=1;verticalAlign=bottom;endArrow=open;curved=0;rounded=0;entryX=1;entryY=0.429;entryDx=0;entryDy=0;exitX=0.5;exitY=0.5;exitDx=0;exitDy=0;exitPerimeter=0;endFill=0;entryPerimeter=0;" parent="1" source="wotGjE5In-CZQoYwchhj-4" target="OAprQZaed1EWCkTWH10G-70" edge="1">
          <mxGeometry width="80" relative="1" as="geometry">
            <mxPoint x="810" y="610" as="sourcePoint" />
            <mxPoint x="655" y="655" as="targetPoint" />
          </mxGeometry>
        </mxCell>
        <mxCell id="OAprQZaed1EWCkTWH10G-82" value="게임 상세" style="ellipse;whiteSpace=wrap;html=1;" parent="1" vertex="1">
          <mxGeometry x="-90" y="130" width="80" height="40" as="geometry" />
        </mxCell>
        <mxCell id="e3QK4qxEaiZ2HB2556rY-1" value="" style="rounded=0;orthogonalLoop=1;jettySize=auto;html=1;endArrow=block;endFill=0;exitX=0.5;exitY=0;exitDx=0;exitDy=0;entryX=0.5;entryY=1;entryDx=0;entryDy=0;" edge="1" parent="1" source="OAprQZaed1EWCkTWH10G-60" target="OAprQZaed1EWCkTWH10G-8">
          <mxGeometry relative="1" as="geometry">
            <mxPoint x="366.53" y="850" as="sourcePoint" />
            <mxPoint x="352.5038838445885" y="825.3355600155944" as="targetPoint" />
          </mxGeometry>
        </mxCell>
        <mxCell id="e3QK4qxEaiZ2HB2556rY-2" value="&amp;lt;&amp;lt;Extends&amp;gt;&amp;gt;" style="endArrow=open;endSize=12;dashed=1;html=1;rounded=0;exitX=0.5;exitY=0;exitDx=0;exitDy=0;entryX=0.384;entryY=0.975;entryDx=0;entryDy=0;entryPerimeter=0;" edge="1" parent="1" source="OAprQZaed1EWCkTWH10G-39" target="OAprQZaed1EWCkTWH10G-3">
          <mxGeometry width="160" relative="1" as="geometry">
            <mxPoint x="320" y="454" as="sourcePoint" />
            <mxPoint x="270" y="486" as="targetPoint" />
          </mxGeometry>
        </mxCell>
        <mxCell id="e3QK4qxEaiZ2HB2556rY-7" value="use" style="html=1;verticalAlign=bottom;endArrow=open;curved=0;rounded=0;entryX=0;entryY=0.5;entryDx=0;entryDy=0;exitX=0.5;exitY=0.5;exitDx=0;exitDy=0;exitPerimeter=0;endFill=0;" edge="1" parent="1" source="wotGjE5In-CZQoYwchhj-2" target="OAprQZaed1EWCkTWH10G-82">
          <mxGeometry width="80" relative="1" as="geometry">
            <mxPoint x="-264.5" y="57.5" as="sourcePoint" />
            <mxPoint x="52.5" y="302.5" as="targetPoint" />
          </mxGeometry>
        </mxCell>
        <mxCell id="e3QK4qxEaiZ2HB2556rY-8" value="use" style="html=1;verticalAlign=bottom;endArrow=open;curved=0;rounded=0;exitX=0.5;exitY=0.5;exitDx=0;exitDy=0;exitPerimeter=0;endFill=0;" edge="1" parent="1" source="wotGjE5In-CZQoYwchhj-3" target="OAprQZaed1EWCkTWH10G-82">
          <mxGeometry width="80" relative="1" as="geometry">
            <mxPoint x="-490" y="370" as="sourcePoint" />
            <mxPoint x="-173" y="615" as="targetPoint" />
          </mxGeometry>
        </mxCell>
        <mxCell id="6rPm77WLlQ7Lb5ZWvZmX-1" value="내용" style="ellipse;whiteSpace=wrap;html=1;" vertex="1" parent="1">
          <mxGeometry y="80" width="40" height="40" as="geometry" />
        </mxCell>
        <mxCell id="6rPm77WLlQ7Lb5ZWvZmX-2" value="후기" style="ellipse;whiteSpace=wrap;html=1;" vertex="1" parent="1">
          <mxGeometry y="180" width="40" height="40" as="geometry" />
        </mxCell>
        <mxCell id="wzexF5obFf_-j8hW9o3h-1" value="" style="rounded=0;orthogonalLoop=1;jettySize=auto;html=1;endArrow=block;endFill=0;entryX=0.95;entryY=0.772;entryDx=0;entryDy=0;entryPerimeter=0;exitX=0.278;exitY=0.137;exitDx=0;exitDy=0;exitPerimeter=0;" edge="1" parent="1" source="6rPm77WLlQ7Lb5ZWvZmX-2" target="OAprQZaed1EWCkTWH10G-82">
          <mxGeometry relative="1" as="geometry">
            <mxPoint x="86.1247674178004" y="179.99547825134772" as="sourcePoint" />
            <mxPoint x="20.000000000000114" y="137.3" as="targetPoint" />
          </mxGeometry>
        </mxCell>
        <mxCell id="wzexF5obFf_-j8hW9o3h-3" value="" style="rounded=0;orthogonalLoop=1;jettySize=auto;html=1;endArrow=block;endFill=0;entryX=1;entryY=0;entryDx=0;entryDy=0;exitX=0;exitY=1;exitDx=0;exitDy=0;" edge="1" parent="1" source="6rPm77WLlQ7Lb5ZWvZmX-1" target="OAprQZaed1EWCkTWH10G-82">
          <mxGeometry relative="1" as="geometry">
            <mxPoint x="96.1247674178004" y="189.99547825134772" as="sourcePoint" />
            <mxPoint x="30.000000000000114" y="147.3" as="targetPoint" />
          </mxGeometry>
        </mxCell>
        <mxCell id="wzexF5obFf_-j8hW9o3h-4" value="결제 시스템 API" style="shape=umlActor;verticalLabelPosition=bottom;verticalAlign=top;html=1;" vertex="1" parent="1">
          <mxGeometry x="384" y="310" width="30" height="60" as="geometry" />
        </mxCell>
        <mxCell id="wzexF5obFf_-j8hW9o3h-5" value="use" style="html=1;verticalAlign=bottom;endArrow=open;curved=0;rounded=0;entryX=0.5;entryY=0.5;entryDx=0;entryDy=0;endFill=0;exitX=0.666;exitY=0.123;exitDx=0;exitDy=0;exitPerimeter=0;entryPerimeter=0;" edge="1" parent="1" source="OAprQZaed1EWCkTWH10G-3" target="wzexF5obFf_-j8hW9o3h-4">
          <mxGeometry width="80" relative="1" as="geometry">
            <mxPoint x="246.45833333333348" y="130" as="sourcePoint" />
            <mxPoint x="235" y="295" as="targetPoint" />
          </mxGeometry>
        </mxCell>
      </root>
    </mxGraphModel>
  </diagram>
  <diagram id="l6oYe_Zk70qHlHBYylow" name="유스케이스 명세서">
    <mxGraphModel dx="1434" dy="780" grid="1" gridSize="10" guides="1" tooltips="1" connect="1" arrows="1" fold="1" page="1" pageScale="1" pageWidth="827" pageHeight="1169" math="0" shadow="0">
      <root>
        <mxCell id="0" />
        <mxCell id="1" parent="0" />
        <mxCell id="JkF-QrwyVzcMtnntn9iE-2" value="&lt;div&gt;유스케이스명 : 게임 판매 사이트&lt;/div&gt;&lt;div&gt;&lt;br&gt;&lt;/div&gt;&lt;div&gt;목표 : 사이트에 올라와 있는 제품들을 판매하는 것&lt;/div&gt;&lt;div&gt;&lt;br&gt;&lt;/div&gt;&lt;div&gt;엑터 : 비회원&amp;amp;회원&lt;/div&gt;&lt;div&gt;&lt;br&gt;&lt;/div&gt;&lt;div&gt;사전 조건 : 회원은 원하는 게임을 구매할 수 있도록 해야 합니다.&amp;nbsp;&lt;/div&gt;&lt;div&gt;&lt;br&gt;&lt;/div&gt;&lt;div&gt;사후 처리 : 새로운 고객 계정이 시스템이 저장됩니다.&lt;/div&gt;&lt;div&gt;&lt;br&gt;&lt;/div&gt;&lt;div&gt;기본흐름 :&amp;nbsp;&lt;/div&gt;&lt;div&gt;&lt;br&gt;&lt;/div&gt;&lt;div&gt;1 비회원이 원하시는 게임을 검색 후 구매를 위한 &#39;회원가입&#39; 란으로 이동한다&lt;/div&gt;&lt;div&gt;2 시스템은 해당 가입하기 위한 유저의 개인정보를 입력 및 저장 생성한다&lt;/div&gt;&lt;div&gt;3 시스템은 회원이 구매하고자 하는 물품을 장바구니에 넣도록 한다&amp;nbsp;&lt;/div&gt;&lt;div&gt;4 회원은 사려고 하는 물품을 장바구니에서 확인 후 &#39;결제&#39; 버튼을 누른다&lt;/div&gt;&lt;div&gt;5 시스템은 회원이 구매하는 물품의 품목을 다시 한 번 확인 시켜준다&lt;/div&gt;&lt;div&gt;6 회원은 확인 후 &#39;결제완료&#39; 버튼을 누른다&amp;nbsp;&lt;/div&gt;&lt;div&gt;7 시스템은 정상적인 결제가 완료 되었다고 말한다&lt;/div&gt;&lt;div&gt;8 회원은 구매한 게임을 다운로드 받을 수 있도록 이동한다&lt;/div&gt;&lt;div&gt;&lt;br&gt;&lt;/div&gt;&lt;div&gt;&lt;br&gt;&lt;/div&gt;&lt;div&gt;&lt;br&gt;&lt;/div&gt;&lt;div&gt;대안흐름 :&amp;nbsp;&lt;/div&gt;&lt;div&gt;&lt;br&gt;&lt;/div&gt;&lt;div&gt;취소버튼를 입력하면 메인화면으로 이동&lt;/div&gt;&lt;div&gt;&lt;br&gt;&lt;/div&gt;&lt;div&gt;&lt;br&gt;&lt;/div&gt;&lt;div&gt;예외흐름 :&amp;nbsp;&lt;/div&gt;&lt;div&gt;&lt;br&gt;&lt;/div&gt;&lt;div&gt;1a 동일한 계정이 있는경우&lt;/div&gt;&lt;div&gt;&lt;span style=&quot;white-space-collapse: collapse;&quot;&gt;&lt;span style=&quot;white-space-collapse: preserve;&quot;&gt;&#x9;&lt;/span&gt;시스템은 &#39;동일한 계정이 있습니다&#39; 라는 메시지를 비회원에게 전달&lt;/span&gt;&lt;/div&gt;&lt;div&gt;&lt;span style=&quot;white-space-collapse: collapse;&quot;&gt;&lt;br&gt;&lt;/span&gt;&lt;/div&gt;&lt;div&gt;&lt;span style=&quot;white-space-collapse: collapse;&quot;&gt;&lt;br&gt;&lt;/span&gt;&lt;/div&gt;&lt;div&gt;&lt;span style=&quot;white-space-collapse: collapse;&quot;&gt;&lt;br&gt;&lt;/span&gt;&lt;/div&gt;&lt;div&gt;&lt;span style=&quot;white-space-collapse: collapse;&quot;&gt;1.&amp;nbsp;&lt;/span&gt;&lt;/div&gt;" style="text;html=1;align=center;verticalAlign=middle;resizable=0;points=[];autosize=1;strokeColor=none;fillColor=none;" vertex="1" parent="1">
          <mxGeometry y="70" width="430" height="530" as="geometry" />
        </mxCell>
        <mxCell id="JkF-QrwyVzcMtnntn9iE-3" value="&lt;div&gt;&amp;lt;&amp;lt;유스케이스 명세서&amp;gt;&amp;gt;&lt;/div&gt;유스케이스명 : 게임 구매 및 판매" style="shape=table;startSize=40;container=1;collapsible=1;childLayout=tableLayout;fixedRows=1;rowLines=0;fontStyle=1;align=center;resizeLast=1;html=1;" vertex="1" parent="1">
          <mxGeometry x="510" y="40" width="510" height="690" as="geometry" />
        </mxCell>
        <mxCell id="JkF-QrwyVzcMtnntn9iE-4" value="" style="shape=tableRow;horizontal=0;startSize=0;swimlaneHead=0;swimlaneBody=0;fillColor=none;collapsible=0;dropTarget=0;points=[[0,0.5],[1,0.5]];portConstraint=eastwest;top=0;left=0;right=0;bottom=1;strokeColor=default;verticalAlign=middle;fontStyle=0" vertex="1" parent="JkF-QrwyVzcMtnntn9iE-3">
          <mxGeometry y="40" width="510" height="30" as="geometry" />
        </mxCell>
        <mxCell id="JkF-QrwyVzcMtnntn9iE-5" value="목표" style="shape=partialRectangle;connectable=0;fillColor=none;top=0;left=0;bottom=0;right=0;fontStyle=1;overflow=hidden;whiteSpace=wrap;html=1;" vertex="1" parent="JkF-QrwyVzcMtnntn9iE-4">
          <mxGeometry width="60" height="30" as="geometry">
            <mxRectangle width="60" height="30" as="alternateBounds" />
          </mxGeometry>
        </mxCell>
        <mxCell id="JkF-QrwyVzcMtnntn9iE-6" value="&lt;span style=&quot;font-weight: 400; text-wrap: nowrap;&quot;&gt;사이트에 올라와 있는 게임 상품들을 판매와 구매하는 것&lt;/span&gt;" style="shape=partialRectangle;connectable=0;fillColor=none;top=0;left=0;bottom=0;right=0;align=left;spacingLeft=6;fontStyle=1;overflow=hidden;whiteSpace=wrap;html=1;" vertex="1" parent="JkF-QrwyVzcMtnntn9iE-4">
          <mxGeometry x="60" width="450" height="30" as="geometry">
            <mxRectangle width="450" height="30" as="alternateBounds" />
          </mxGeometry>
        </mxCell>
        <mxCell id="JkF-QrwyVzcMtnntn9iE-7" value="" style="shape=tableRow;horizontal=0;startSize=0;swimlaneHead=0;swimlaneBody=0;fillColor=none;collapsible=0;dropTarget=0;points=[[0,0.5],[1,0.5]];portConstraint=eastwest;top=0;left=0;right=0;bottom=1;" vertex="1" parent="JkF-QrwyVzcMtnntn9iE-3">
          <mxGeometry y="70" width="510" height="30" as="geometry" />
        </mxCell>
        <mxCell id="JkF-QrwyVzcMtnntn9iE-8" value="엑터" style="shape=partialRectangle;connectable=0;fillColor=none;top=0;left=0;bottom=0;right=0;fontStyle=1;overflow=hidden;whiteSpace=wrap;html=1;" vertex="1" parent="JkF-QrwyVzcMtnntn9iE-7">
          <mxGeometry width="60" height="30" as="geometry">
            <mxRectangle width="60" height="30" as="alternateBounds" />
          </mxGeometry>
        </mxCell>
        <mxCell id="JkF-QrwyVzcMtnntn9iE-9" value="판매자 &amp;amp; 회원" style="shape=partialRectangle;connectable=0;fillColor=none;top=0;left=0;bottom=0;right=0;align=left;spacingLeft=6;fontStyle=0;overflow=hidden;whiteSpace=wrap;html=1;" vertex="1" parent="JkF-QrwyVzcMtnntn9iE-7">
          <mxGeometry x="60" width="450" height="30" as="geometry">
            <mxRectangle width="450" height="30" as="alternateBounds" />
          </mxGeometry>
        </mxCell>
        <mxCell id="JkF-QrwyVzcMtnntn9iE-10" value="" style="shape=tableRow;horizontal=0;startSize=0;swimlaneHead=0;swimlaneBody=0;fillColor=none;collapsible=0;dropTarget=0;points=[[0,0.5],[1,0.5]];portConstraint=eastwest;top=0;left=0;right=0;bottom=1;" vertex="1" parent="JkF-QrwyVzcMtnntn9iE-3">
          <mxGeometry y="100" width="510" height="30" as="geometry" />
        </mxCell>
        <mxCell id="JkF-QrwyVzcMtnntn9iE-11" value="사전 조건" style="shape=partialRectangle;connectable=0;fillColor=none;top=0;left=0;bottom=0;right=0;fontStyle=1;overflow=hidden;whiteSpace=wrap;html=1;" vertex="1" parent="JkF-QrwyVzcMtnntn9iE-10">
          <mxGeometry width="60" height="30" as="geometry">
            <mxRectangle width="60" height="30" as="alternateBounds" />
          </mxGeometry>
        </mxCell>
        <mxCell id="JkF-QrwyVzcMtnntn9iE-12" value="비회원은 원하는 게임을 구매하기 위해선 회원가입을 하고 게임구매가 가능하게 해야 한다" style="shape=partialRectangle;connectable=0;fillColor=none;top=0;left=0;bottom=0;right=0;align=left;spacingLeft=6;fontStyle=0;overflow=hidden;whiteSpace=wrap;html=1;" vertex="1" parent="JkF-QrwyVzcMtnntn9iE-10">
          <mxGeometry x="60" width="450" height="30" as="geometry">
            <mxRectangle width="450" height="30" as="alternateBounds" />
          </mxGeometry>
        </mxCell>
        <mxCell id="JkF-QrwyVzcMtnntn9iE-13" value="" style="shape=tableRow;horizontal=0;startSize=0;swimlaneHead=0;swimlaneBody=0;fillColor=none;collapsible=0;dropTarget=0;points=[[0,0.5],[1,0.5]];portConstraint=eastwest;top=0;left=0;right=0;bottom=1;" vertex="1" parent="JkF-QrwyVzcMtnntn9iE-3">
          <mxGeometry y="130" width="510" height="30" as="geometry" />
        </mxCell>
        <mxCell id="JkF-QrwyVzcMtnntn9iE-14" value="사후 처리" style="shape=partialRectangle;connectable=0;fillColor=none;top=0;left=0;bottom=0;right=0;fontStyle=1;overflow=hidden;whiteSpace=wrap;html=1;" vertex="1" parent="JkF-QrwyVzcMtnntn9iE-13">
          <mxGeometry width="60" height="30" as="geometry">
            <mxRectangle width="60" height="30" as="alternateBounds" />
          </mxGeometry>
        </mxCell>
        <mxCell id="JkF-QrwyVzcMtnntn9iE-15" value="회원 정상 가입 이후 원하는 게임을 살 수 있다" style="shape=partialRectangle;connectable=0;fillColor=none;top=0;left=0;bottom=0;right=0;align=left;spacingLeft=6;fontStyle=0;overflow=hidden;whiteSpace=wrap;html=1;" vertex="1" parent="JkF-QrwyVzcMtnntn9iE-13">
          <mxGeometry x="60" width="450" height="30" as="geometry">
            <mxRectangle width="450" height="30" as="alternateBounds" />
          </mxGeometry>
        </mxCell>
        <mxCell id="JkF-QrwyVzcMtnntn9iE-16" value="" style="shape=tableRow;horizontal=0;startSize=0;swimlaneHead=0;swimlaneBody=0;fillColor=none;collapsible=0;dropTarget=0;points=[[0,0.5],[1,0.5]];portConstraint=eastwest;top=0;left=0;right=0;bottom=1;" vertex="1" parent="JkF-QrwyVzcMtnntn9iE-3">
          <mxGeometry y="160" width="510" height="170" as="geometry" />
        </mxCell>
        <mxCell id="JkF-QrwyVzcMtnntn9iE-17" value="기본흐름" style="shape=partialRectangle;connectable=0;fillColor=none;top=0;left=0;bottom=0;right=0;fontStyle=1;overflow=hidden;whiteSpace=wrap;html=1;" vertex="1" parent="JkF-QrwyVzcMtnntn9iE-16">
          <mxGeometry width="60" height="170" as="geometry">
            <mxRectangle width="60" height="170" as="alternateBounds" />
          </mxGeometry>
        </mxCell>
        <mxCell id="JkF-QrwyVzcMtnntn9iE-18" value="&lt;div style=&quot;text-wrap: nowrap;&quot;&gt;&lt;div style=&quot;text-align: center;&quot;&gt;1. 회원&amp;amp; 비회원이 원하는 게임을 판매자가 판매란에 올린다&lt;/div&gt;&lt;div style=&quot;text-align: center;&quot;&gt;1 비회원이 원하시는 게임을 검색 후 구매를 위한 &#39;회원가입&#39; 란으로 이동한다&lt;/div&gt;&lt;div style=&quot;text-align: center;&quot;&gt;2 시스템은 해당 가입하기 위한 유저의 개인정보를 입력 및 저장 생성한다&lt;/div&gt;&lt;div style=&quot;text-align: center;&quot;&gt;3 시스템은 회원이 구매하고자 하는 물품을 장바구니에 넣도록 한다&amp;nbsp;&lt;/div&gt;&lt;div style=&quot;text-align: center;&quot;&gt;4 회원은 사려고 하는 물품을 장바구니에서 확인 후 &#39;결제&#39; 버튼을 누른다&lt;/div&gt;&lt;div style=&quot;text-align: center;&quot;&gt;5 시스템은 회원이 구매하는 물품의 품목을 다시 한 번 확인 시켜준다&lt;/div&gt;&lt;div style=&quot;text-align: center;&quot;&gt;6 회원은 확인 후 &#39;결제완료&#39; 버튼을 누른다&amp;nbsp;&lt;/div&gt;&lt;div style=&quot;text-align: center;&quot;&gt;7 시스템은 정상적인 결제가 완료 되었다고 말한다&lt;/div&gt;&lt;div style=&quot;text-align: center;&quot;&gt;8 회원은 구매한 게임을 다운로드 받을 수 있도록 이동한다&lt;/div&gt;&lt;/div&gt;" style="shape=partialRectangle;connectable=0;fillColor=none;top=0;left=0;bottom=0;right=0;align=left;spacingLeft=6;fontStyle=0;overflow=hidden;whiteSpace=wrap;html=1;" vertex="1" parent="JkF-QrwyVzcMtnntn9iE-16">
          <mxGeometry x="60" width="450" height="170" as="geometry">
            <mxRectangle width="450" height="170" as="alternateBounds" />
          </mxGeometry>
        </mxCell>
        <mxCell id="JkF-QrwyVzcMtnntn9iE-19" value="" style="shape=tableRow;horizontal=0;startSize=0;swimlaneHead=0;swimlaneBody=0;fillColor=none;collapsible=0;dropTarget=0;points=[[0,0.5],[1,0.5]];portConstraint=eastwest;top=0;left=0;right=0;bottom=1;" vertex="1" parent="JkF-QrwyVzcMtnntn9iE-3">
          <mxGeometry y="330" width="510" height="130" as="geometry" />
        </mxCell>
        <mxCell id="JkF-QrwyVzcMtnntn9iE-20" value="대안흐름" style="shape=partialRectangle;connectable=0;fillColor=none;top=0;left=0;bottom=0;right=0;fontStyle=1;overflow=hidden;whiteSpace=wrap;html=1;" vertex="1" parent="JkF-QrwyVzcMtnntn9iE-19">
          <mxGeometry width="60" height="130" as="geometry">
            <mxRectangle width="60" height="130" as="alternateBounds" />
          </mxGeometry>
        </mxCell>
        <mxCell id="JkF-QrwyVzcMtnntn9iE-21" value="&lt;div&gt;취소 버튼를 입력하면 메인 화면으로 이동&lt;/div&gt;&lt;div&gt;다운로드에 문제가 생겼을 시 다시 다운을 받을 수 있도록 ?&lt;/div&gt;" style="shape=partialRectangle;connectable=0;fillColor=none;top=0;left=0;bottom=0;right=0;align=left;spacingLeft=6;fontStyle=0;overflow=hidden;whiteSpace=wrap;html=1;" vertex="1" parent="JkF-QrwyVzcMtnntn9iE-19">
          <mxGeometry x="60" width="450" height="130" as="geometry">
            <mxRectangle width="450" height="130" as="alternateBounds" />
          </mxGeometry>
        </mxCell>
        <mxCell id="JkF-QrwyVzcMtnntn9iE-22" value="" style="shape=tableRow;horizontal=0;startSize=0;swimlaneHead=0;swimlaneBody=0;fillColor=none;collapsible=0;dropTarget=0;points=[[0,0.5],[1,0.5]];portConstraint=eastwest;top=0;left=0;right=0;bottom=1;" vertex="1" parent="JkF-QrwyVzcMtnntn9iE-3">
          <mxGeometry y="460" width="510" height="230" as="geometry" />
        </mxCell>
        <mxCell id="JkF-QrwyVzcMtnntn9iE-23" value="예외흐름" style="shape=partialRectangle;connectable=0;fillColor=none;top=0;left=0;bottom=0;right=0;fontStyle=1;overflow=hidden;whiteSpace=wrap;html=1;" vertex="1" parent="JkF-QrwyVzcMtnntn9iE-22">
          <mxGeometry width="60" height="230" as="geometry">
            <mxRectangle width="60" height="230" as="alternateBounds" />
          </mxGeometry>
        </mxCell>
        <mxCell id="JkF-QrwyVzcMtnntn9iE-24" value="&lt;div style=&quot;text-wrap: nowrap;&quot;&gt;1.&amp;nbsp;&lt;/div&gt;" style="shape=partialRectangle;connectable=0;fillColor=none;top=0;left=0;bottom=0;right=0;align=left;spacingLeft=6;fontStyle=0;overflow=hidden;whiteSpace=wrap;html=1;" vertex="1" parent="JkF-QrwyVzcMtnntn9iE-22">
          <mxGeometry x="60" width="450" height="230" as="geometry">
            <mxRectangle width="450" height="230" as="alternateBounds" />
          </mxGeometry>
        </mxCell>
      </root>
    </mxGraphModel>
  </diagram>
</mxfile>
